<?xml version="1.0" encoding="utf-8"?>
<svg version="1.1" xmlns:xlink="http://www.w3.org/1999/xlink" width="16px" height="20px" xmlns="http://www.w3.org/2000/svg">
  <g transform="matrix(1 0 0 1 -712 0 )">
    <path d="M 16 1.8748169140625002  C 15.926055240091465 0.83976173828125  15.10677549542683 0  14.096965567835365 0  L 1.9030344321646342 0  C 0.8932245045731712 0  0.07394475990853677 0.83976173828125  0 1.8748169140625002  L 0 18.172053515625002  C 0.07394475990853677 18.203300468749998  0.0758500571646343 18.236500351562498  0.07966067073170725 18.26774728515625  C 0.08156596798780513 18.28337076171875  0.08156596798780513 18.29899423828125  0.0834712652439023 18.31657064453125  C 0.17111514862804883 19.19539107421875  0.8589290777439027 19.898447421874998  1.7163148628048777 19.99023533203125  C 1.7315572789634144 19.992188261718752  1.746799695121951 19.99414119140625  1.7639474085365854 19.99414119140625  C 1.7944322408536582 19.99609412109375  1.826822370426829 19.998047050781253  1.857307183689024 20  L 14.14650341082317 20  C 14.176988243140242 20  14.209378372713415 19.998047070312495  14.239863205030488 19.99414119140625  C 14.255105621189026 19.99218826171875  14.270348037347562 19.99218826171875  14.287495750762197 19.99023533203125  C 15.14488153582317 19.9004003515625  15.830790167682927 19.19539107421875  15.920339329268295 18.316570644531247  C 15.922244626524394 18.300947167968747  15.924149923780488 18.28532369140625  15.924149942835367 18.267747285156247  C 15.926055240091467 18.236500332031248  15.92796053734756 18.20330044921875  16 18.172053515625  L 16 1.8748169140625002  Z M 3.122427553353658 6.561859199218749  L 3.122427553353658 3.4371643359374997  C 3.122427553353658 3.2653061132812495  3.2596092797256095 3.12469484375  3.427275819359756 3.12469486328125  L 12.572724180640243 3.12469486328125  C 12.740390739329266 3.12469486328125  12.877572465701217 3.2653061328125  12.87757244664634 3.4371643359374997  L 12.87757244664634 6.561859199218749  C 12.87757244664634 6.733717421874999  12.740390720274387 6.87432869140625  12.572724180640243 6.874328671874999  L 3.427275819359756 6.874328671874999  C 3.259609260670731 6.874328671874999  3.1224275342987804 6.73371740234375  3.122427553353658 6.561859199218749  Z M 3.1224275533536594 9.21784982421875  L 3.122427553353658 8.2804413671875  C 3.122427553353658 8.194512265625  3.191018407012195 8.124206621093752  3.2748516768292677 8.124206621093752  L 12.725148323170732 8.124206621093752  C 12.808981592987806 8.124206621093752  12.877572465701219 8.194512246093751  12.87757244664634 8.2804413671875  L 12.87757244664634 9.21784982421875  C 12.87757244664634 9.303778925781248  12.808981592987806 9.374084570312501  12.725148323170732 9.374084570312501  L 3.2748516768292686 9.374084570312501  C 3.1910184070121956 9.374084570312501  3.1224275342987813 9.3037789453125  3.1224275533536594 9.21784982421875  Z M 3.1224275533536594 11.717605703125  L 3.122427553353658 10.78019724609375  C 3.122427553353658 10.69426814453125  3.191018407012195 10.6239625  3.2748516768292677 10.6239625  L 12.725148323170732 10.6239625  C 12.808981592987806 10.6239625  12.877572465701219 10.694268124999999  12.87757244664634 10.78019724609375  L 12.87757244664634 11.717605703125  C 12.87757244664634 11.803534804687501  12.808981592987806 11.87384044921875  12.725148323170732 11.87384044921875  L 3.2748516768292686 11.87384044921875  C 3.1910184070121956 11.87384044921875  3.1224275342987813 11.803534824218751  3.1224275533536594 11.717605703125  Z M 14.704756821646342 18.123230156250003  C 14.70666211890244 18.13104189453125  14.70666211890244 18.136900703125004  14.70666211890244 18.144712421875  L 14.70666211890244 18.16424177734375  C 14.70666211890244 18.1701005859375  14.70666211890244 18.1740064453125  14.704756821646342 18.17986525390625  C 14.702851524390242 18.195488730468753  14.700946227134146 18.20915927734375  14.69904091082317 18.224782734375  C 14.69904091082317 18.230641542968755  14.69713561356707 18.236500332031248  14.695230316310976 18.242359140625  C 14.695230316310976 18.24821794921875  14.693325019054877 18.25407673828125  14.691419702743904 18.259935546875  C 14.6399765625 18.4962405859375  14.458972884908537 18.681769355468745  14.228431383384146 18.734498593749997  C 14.222715472560974 18.736451523437502  14.216999580792683 18.736451523437502  14.21128366996951 18.738404453125  C 14.205567759146343 18.740357382812498  14.19985186737805 18.740357382812498  14.194135956554879 18.740357382812498  C 14.180798837652441 18.742310312500003  14.165556421493903 18.7442632421875  14.150314024390246 18.74621619140625  C 14.144598113567074 18.74621619140625  14.14078751905488 18.74621619140625  14.135071608231708 18.748169121093753  L 1.8630230945121948 18.748169121093753  C 1.8573071836890247 18.748169121093753  1.8534965891768291 18.748169121093753  1.8477806783536583 18.74621619140625  C 1.8325382621951216 18.744263261718746  1.8192011432926831 18.742310332031252  1.8039587461890239 18.740357382812498  C 1.798242835365853 18.740357382812498  1.7925269435975606 18.738404453125  1.7868110327743898 18.738404453125  C 1.7810951219512197 18.738404453125  1.7753792301829263 18.7364515234375  1.7696633003048778 18.734498593749997  C 1.5391217987804877 18.681769375  1.3581181211890239 18.49624060546875  1.3066749809451217 18.259935546875  C 1.3047696836890241 18.25407673828125  1.3047696836890241 18.24821794921875  1.3028643864329261 18.242359140625  C 1.300959089176829 18.236500332031248  1.300959089176829 18.230641542968755  1.2990537728658529 18.224782734375  C 1.2971484756097558 18.2111121875  1.2952431783536575 18.1954887109375  1.2933378810975604 18.17986525390625  C 1.2933378810975604 18.1740064453125  1.2933378810975604 18.1701005859375  1.291432564786585 18.16424177734375  L 1.291432564786585 18.144712421875  L 1.291432564786585 17.576408554687497  C 1.291432564786585 17.533444003906247  1.325727991615853 17.49829119140625  1.3676446455792675 17.49829119140625  L 14.095060270579266 17.49829119140625  C 14.432298685213413 17.49829119140625  14.704756821646342 17.777560800781245  14.704756821646342 18.123230156250003  Z " fill-rule="nonzero" fill="#97a0bf" stroke="none" transform="matrix(1 0 0 1 712 0 )" />
  </g>
</svg>