<?xml version="1.0" encoding="utf-8"?>
<svg version="1.1" xmlns:xlink="http://www.w3.org/1999/xlink" width="90px" height="78px" xmlns="http://www.w3.org/2000/svg">
  <g transform="matrix(1 0 0 1 -570 -196 )">
    <path d="M 28.170736794542893 77.97852263126818  C 61.95837173507461 77.98668161337211  80.43605369636192 48.20137525890264  80.43605369636194 22.358625333848114  C 80.43605369636194 21.507849704760176  80.41994181436567 20.66667288335756  80.38282118703358 19.831255364280526  C 83.9737249008862 17.12134782203852  87.08932713386193 13.729123889444043  89.55350250699627 9.847360056322678  C 86.2070775174114 11.37237929509781  82.64613879016976 12.3590674735456  78.99924994169776 12.771801344476748  C 82.79486972364738 10.406171545694049  85.70575588852611 6.622795646348115  87.08127119286378 2.082552525436051  C 83.52733007812498 4.265484790606837  79.59618067863805 5.826093279887359  75.41640216884328 6.639273571493465  C 72.06733515041977 2.7797469658430285  67.28809867653918 0.3214885356104704  62.004654063666045 0.23013976880451076  C 51.85762228894589 0.060240615915702796  43.632015479244394 8.744775265715848  43.63201539179103 19.625040649981834  C 43.63201539179103 21.171570982467298  43.79171291977611 22.67138696402617  44.1087386019123 24.119689323673697  C 28.82864001282648 23.123811498455673  15.288470411613797 15.068479564861924  6.231204378498121 2.9250092114825637  C 4.650814977845137 5.8344123115007305  3.7441248833955094 9.23463526526163  3.7441248833955094 12.87850822129361  C 3.7441248833955094 19.770462767986924  6.987832643423496 25.895951374000727  11.916341243003718 29.51054802416425  C 8.899148087686553 29.372324945494192  6.072770551539167 28.446838524255092  3.5937469974346894 26.929424625272528  L 3.5937469974346894 27.182513651435322  C 3.5937469974346894 36.81493208802689  9.92888907999066 44.885462082122096  18.33488619402984 46.76843109783793  C 16.79382885377797 47.21237663971657  15.16842091301305 47.44338831077399  13.496730643656702 47.435069279160615  C 12.335253366139836 47.428991463021156  11.17754978185278 47.30058301204891  10.042304279384314 47.05191633357558  C 12.378058156483196 54.94550809638446  19.16654532999066 60.712480664062504  27.20339001282648 60.90461704442225  C 20.913424498600737 66.18668911019259  12.98999510261193 69.34182205895712  4.387495802238792 69.3197447924237  C 2.9042517782182693 69.3197447924237  1.4385413654384185 69.21895717886991  0.001579582555955898 69.03625955668605  C 8.135727582789166 74.68724636173692  17.791187966417898 77.97852263126818  28.170736794542893 77.97852263126818  Z " fill-rule="nonzero" fill="#97a0bf" stroke="none" transform="matrix(1 0 0 1 570 196 )" />
  </g>
</svg>