<?xml version="1.0" encoding="utf-8"?>
<svg version="1.1" xmlns:xlink="http://www.w3.org/1999/xlink" width="20px" height="20px" xmlns="http://www.w3.org/2000/svg">
  <g transform="matrix(1 0 0 1 -145 0 )">
    <path d="M 19.94318181818182 10  C 19.94318181818182 4.509055397727273  15.490944602272727 0.05681818181818182  10 0.05681818181818182  C 4.509055397727273 0.05681818181818182  0.05681818181818182 4.509055397727273  0.05681818181818182 10  C 0.05681818181818182 15.490944602272727  4.509055397727273 19.94318181818182  10 19.94318181818182  C 15.490944602272727 19.94318181818182  19.94318181818182 15.490944602272727  19.94318181818182 10  Z M 16.014737215909093 6.273526278409091  C 15.679598721590914 6.766246448863637  15.260120738636367 7.203480113636363  14.778497869318182 7.5519353693181825  C 14.785156249999998 7.65625  14.785156249999998 7.765003551136363  14.785156249999998 7.871537642045454  C 14.785156249999998 11.129705255681818  12.30379971590909 14.8828125  7.7694424715909065 14.8828125  C 6.371182528409087 14.8828125  5.075017755681817 14.476651278409092  3.9830433238636336 13.777521306818182  C 4.18279474431818 13.799715909090908  4.373668323863634 13.80859375  4.577858664772725 13.80859375  C 5.731977982954542 13.80859375  6.7928799715909065 13.41796875  7.638494318181817 12.75656960227273  C 6.555397727272726 12.734375000000002  5.645419034090907 12.02414772727273  5.334694602272725 11.04758522727273  C 5.714222301136362 11.103071732954549  6.056019176136362 11.103071732954549  6.446644176136362 11.003196022727275  C 5.319158380681817 10.774591619318183  4.4735440340909065 9.782492897727273  4.4735440340909065 8.583984375000002  L 4.4735440340909065 8.552911931818183  C 4.799804687499998 8.73712713068182  5.183771306818179 8.85031960227273  5.585493607954543 8.865855823863637  C 4.899680397727272 8.408647017045457  4.486860795454543 7.63849431818182  4.486860795454543 6.81507457386364  C 4.486860795454543 6.355646306818184  4.60671164772727 5.936168323863638  4.821999289772726 5.572176846590912  C 6.036044034090907 7.068093039772729  7.86044034090909 8.04465553977273  9.90456321022727 8.148970170454549  C 9.556107954545453 6.473277698863637  10.807883522727273 5.1171875  12.312677556818183 5.1171875  C 13.022904829545457 5.1171875  13.662109375 5.414595170454545  14.112659801136365 5.893998579545454  C 14.66974431818182 5.789683948863637  15.202414772727275 5.581054687499999  15.677379261363635 5.301402698863637  C 15.493164062500002 5.871803977272727  15.106977982954547 6.353426846590909  14.594282670454549 6.657492897727273  C 15.09144176136364 6.604225852272729  15.570845170454549 6.4666193181818175  16.014737215909093 6.273526278409091  Z " fill-rule="nonzero" fill="#97a0bf" stroke="none" transform="matrix(1 0 0 1 145 0 )" />
  </g>
</svg>