<?xml version="1.0" encoding="utf-8"?>
<svg version="1.1" xmlns:xlink="http://www.w3.org/1999/xlink" width="20px" height="16px" xmlns="http://www.w3.org/2000/svg">
  <g transform="matrix(1 0 0 1 -850 -572 )">
    <path d="M 6.260163732120643 15.995594385901166  C 13.768527052238802 15.997268023255817  17.874678599191537 9.887461591569771  17.874678599191544 4.58638468386628  C 17.874678599191544 4.411866606104652  17.87109818097015 4.239317514534884  17.86284915267413 4.067949818313954  C 18.660827755752486 3.5120713481104655  19.353183807524875 2.816230541424419  19.90077833488806 2.019971293604652  C 19.157128337202533 2.3327957528405765  18.365808620037722 2.5351933279067898  17.555388875932834 2.6198566860465125  C 18.39885993858831 2.1345992914244203  19.04572353078358 1.35852218386628  19.351393598414177 0.4271902616279079  C 18.561628906249997 0.8749712390988383  17.688040150808455 1.1950960574127916  16.759200481965173 1.3619022710755826  C 16.01496336675995 0.5702045058139545  14.952910817008707 0.06594636627907086  13.77881201414801 0.047208157703489385  C 11.523916064210198 0.012357049418605702  9.696003439832086 1.793800054505815  9.696003420398007 4.025649364098838  C 9.696003420398007 4.342886355377908  9.731491759950247 4.650540915697675  9.801941911536067 4.947628579215118  C 6.406364447294774 4.7433459484011635  3.3974378692475105 3.090970167151164  1.3847120841106935 0.6000018895348849  C 1.0335144395211415 1.1968025254360473  0.8320277518656688 1.8942841569767448  0.8320277518656688 2.6417452761627915  C 0.8320277518656688 4.055479542151164  1.5528516985385545 5.311990025436047  2.648075831778604 6.053445748546513  C 1.9775884639303454 6.025092296511629  1.3495045670087036 5.8352489280523265  0.7986104438743755 5.523984538517442  L 0.7986104438743755 5.575900236191861  C 0.7986104438743755 7.551780941133721  2.20641979555348 9.207274273255814  4.0744191542288535 9.593524327761628  C 3.731961967506216 9.68459007994186  3.370760202891789 9.731977089389536  2.999273476368156 9.73027062136628  C 2.741167414697742 9.729023889850493  2.48389995152284 9.702683694779264  2.2316231731965144 9.651675145348838  C 2.750679590329599 11.270873455668607  4.25923229555348 12.453842187500001  6.045197780628106 12.493254778343026  C 4.6474276663557195 13.576756740552327  2.886665578358207 14.223963499273255  0.9749990671641761 14.21943482921512  C 0.6453892840485043 14.21943482921512  0.31967585898631523 14.198760446947675  0.0003510183457679773 14.161284011627908  C 1.8079394628420367 15.320460792151165  3.9535973258706436 15.995594385901166  6.260163732120643 15.995594385901166  Z " fill-rule="nonzero" fill="#ffffff" stroke="none" transform="matrix(1 0 0 1 850 572 )" />
  </g>
</svg>