<?xml version="1.0" encoding="utf-8"?>
<svg version="1.1" xmlns:xlink="http://www.w3.org/1999/xlink" width="20px" height="20px" xmlns="http://www.w3.org/2000/svg">
  <g transform="matrix(1 0 0 1 -185 0 )">
    <path d="M 13.27071427734375 14.586428574218752  L 13.27 14.587142851562502  L 14.910714277343748 6.852857148437501  C 15.055714277343748 6.17214287109375  14.664999999999997 5.904285722656251  14.21857142578125 6.07142857421875  L 4.5757142773437485 9.7878571484375  C 3.917142851562497 10.04428572265625  3.9285714257812483 10.4128571484375  4.464285722656248 10.58  L 6.930714277343748 11.35  L 12.656428574218747 7.745000000000001  C 12.924285722656247 7.56642857421875  13.169999999999995 7.6671428515625  12.969285722656247 7.845714277343749  L 8.337857148437497 12.030714277343751  L 8.159285722656248 14.57571427734375  C 8.415714296874997 14.57571427734375  8.527857148437498 14.464285703125  8.661428574218748 14.33  L 9.866428574218748 13.16928572265625  L 12.366428574218748 15.010714277343752  C 12.824285722656247 15.267142851562499  13.147857148437499 15.133571425781254  13.27071427734375 14.586428574218752  Z M 10 0  C 15.52428572265625 0  20 4.475714277343751  20 10  C 20 15.52428572265625  15.52428572265625 20  10 20  C 4.475714277343749 20  0 15.52428572265625  0 10  C 0 4.475714277343749  4.475714277343751 0  10 0  Z " fill-rule="nonzero" fill="#97a0bf" stroke="none" transform="matrix(1 0 0 1 185 0 )" />
  </g>
</svg>